<svg id="Icons" xmlns="http://www.w3.org/2000/svg" viewBox="0 0 200 200"><defs><style>.cls-1{fill:#666;}</style></defs><title>Handshake</title><g id="handshake"><path class="cls-1" d="M64.39 79.15c-6 4.95-3.1 19 10.91 10.53 0 0 17.12-8.58 27.11-14.26 2.19-1.23 3.64-.82 5.46 1.25 2 1.44 47.31 52 47.31 52s14-10.6 19.42-21.76c0 0-12.55-23.6-24.51-47-3.47 2-6.43 3.83-10.41 2.7s-7.53-4.39-11.25-6.55c-4.25-2.47-7.84-4.7-12.57-5.38-7-1-12.51 2.14-18.54 5.6-6.86 3.93-13.52 8.36-20 13Q70.68 74 64.39 79.15zM73.18 158a8.42 8.42 0 0 1 1-10.8l14.37-13.09a6.23 6.23 0 0 1 9.53.91 8.41 8.41 0 0 1-1 10.8l-14.36 13.04a6.23 6.23 0 0 1-9.54-.91zM59.92 145.9a8.41 8.41 0 0 1 1-10.8l11.34-10.32a6.22 6.22 0 0 1 9.53.9 8.42 8.42 0 0 1-1 10.81l-11.33 10.32a6.24 6.24 0 0 1-9.54-.91zM43.87 136.05a8.37 8.37 0 0 1 1.53-10.72l2.54-2a6.25 6.25 0 0 1 9.47 1.51l.15.19a8.15 8.15 0 0 1-1.67 10.53l-2.54 2a6.26 6.26 0 0 1-9.48-1.51zM107.39 150.61a6.22 6.22 0 0 0-9.56-.38l-6.2 6.43a8.42 8.42 0 0 0-.54 10.84 6.23 6.23 0 0 0 9.57.39l6.19-6.44a8.42 8.42 0 0 0 .54-10.84zM196 96.32a3.77 3.77 0 0 1-1.24 5.16L184.33 107a3.77 3.77 0 0 1-4.93-2l-24.77-47.83a3.76 3.76 0 0 1 1.24-5.17l10.42-5.49a3.77 3.77 0 0 1 4.94 2zM19.42 104.56c-.78 2.07-2.77 3.24-4.45 2.6l-10.52-3.65c-1.67-.63-2.4-2.83-1.62-4.89l19-50.43c.77-2.07 2.77-3.24 4.45-2.61l10.52 3.66c1.67.63 2.4 2.82 1.62 4.9z"/><path class="cls-1" d="M154.62 134.91a5.83 5.83 0 0 1-1.4 3.1 6.79 6.79 0 0 1-5.07 2.34 7.07 7.07 0 0 1-5.33-2.54l-17.9-20.3a1.53 1.53 0 0 0-1.18-.57c-1.71 0-3.6 2.81-2.06 4.42l14.69 16.24a8.64 8.64 0 0 1 .08 11.25 5.94 5.94 0 0 1-4.48 2.11 7.1 7.1 0 0 1-5.26-2.63l-16.83-18.76a1.56 1.56 0 0 0-1.34-.85c-1.58 0-3.25 2.64-1.58 4.53l13 14.85a8.43 8.43 0 0 1-.19 10.94 5.66 5.66 0 0 1-4.27 2 6 6 0 0 1-2.67-.65 12.7 12.7 0 0 1-2.36 4 10.41 10.41 0 0 0 5 1.36 10 10 0 0 0 7.51-3.48 13.25 13.25 0 0 0 3.32-8.3 10.78 10.78 0 0 0 5.69 1.69 10.35 10.35 0 0 0 7.74-3.59 13.07 13.07 0 0 0 3.23-8.35 10.93 10.93 0 0 0 13.53-2.49 11.49 11.49 0 0 0 2.72-6.59 4.8 4.8 0 0 0-.44-2.8l-.91.72zM42.62 121.68l.06-.05h.06l1.07-.84c-8.78-8.91-14.15-15.47-14.15-15.47 8.43-21.47 18-47.64 18-47.64-.08 1.48 4.91 4.13 5.92 4.53a14.12 14.12 0 0 0 5.26 1c.5 0 1 0 1.51-.08 5.26-.53 10.21-3.57 14.86-6.18 3.12-1.76 7-3.57 10.67-3.57a8.89 8.89 0 0 1 5 1.46c1.4-.86 2.79-1.68 4.15-2.46a4.71 4.71 0 0 0-.79-.82 13.07 13.07 0 0 0-8.34-2.85c-4.88 0-9.64 2.35-12.78 4.12l-1.22.69c-3.95 2.25-8 4.57-11.95 5h-1.09a9.78 9.78 0 0 1-3.67-.68 20 20 0 0 1-3.43-2 4.52 4.52 0 0 0-3.15-2.69 4.29 4.29 0 0 0-.94-.1 4.44 4.44 0 0 0-4.15 3c-.1.26-9.62 26.36-17.93 47.53a4.82 4.82 0 0 0 .74 4.82c.23.28 5.54 6.75 14.27 15.62a12.21 12.21 0 0 1 2.02-2.34z"/></g></svg>